<?xml version="1.0" encoding="UTF-8"?>
<svg xmlns="http://www.w3.org/2000/svg" width="2048" height="568" viewBox="0 0 2048 568" role="img" aria-label="Everhart Advisors logo - color">
  <title>Everhart Advisors logo - color</title>
  <path d="M 285.0 111.0 L 376.0 377.0 L 457.0 377.0 L 547.0 111.0 L 474.0 112.0 L 424.0 277.0 L 418.0 293.0 L 414.0 284.0 L 361.0 111.0 Z M 1826.0 106.0 L 1819.0 104.0 L 1799.0 104.0 L 1785.0 107.0 L 1766.0 115.0 L 1755.0 122.0 L 1742.0 134.0 L 1725.0 160.0 L 1724.0 111.0 L 1655.0 111.0 L 1655.0 377.0 L 1728.0 377.0 L 1728.0 243.0 L 1731.0 224.0 L 1735.0 211.0 L 1745.0 194.0 L 1754.0 185.0 L 1769.0 176.0 L 1790.0 171.0 L 1811.0 171.0 L 1826.0 173.0 Z M 1398.0 129.0 L 1384.0 143.0 L 1373.0 161.0 L 1368.0 178.0 L 1367.0 192.0 L 1439.0 192.0 L 1443.0 175.0 L 1447.0 168.0 L 1455.0 160.0 L 1472.0 153.0 L 1500.0 152.0 L 1515.0 155.0 L 1524.0 160.0 L 1530.0 166.0 L 1535.0 177.0 L 1536.0 193.0 L 1531.0 204.0 L 1519.0 212.0 L 1502.0 217.0 L 1456.0 222.0 L 1416.0 230.0 L 1390.0 241.0 L 1373.0 256.0 L 1362.0 276.0 L 1359.0 289.0 L 1358.0 308.0 L 1360.0 325.0 L 1364.0 338.0 L 1377.0 358.0 L 1386.0 366.0 L 1404.0 376.0 L 1433.0 383.0 L 1466.0 383.0 L 1496.0 377.0 L 1519.0 367.0 L 1538.0 351.0 L 1544.0 377.0 L 1617.0 377.0 L 1611.0 359.0 L 1608.0 328.0 L 1608.0 167.0 L 1603.0 149.0 L 1592.0 133.0 L 1577.0 121.0 L 1558.0 112.0 L 1538.0 107.0 L 1513.0 104.0 L 1473.0 104.0 L 1445.0 108.0 L 1418.0 117.0 Z M 1536.0 248.0 L 1536.0 280.0 L 1533.0 299.0 L 1525.0 315.0 L 1515.0 325.0 L 1500.0 333.0 L 1475.0 336.0 L 1451.0 332.0 L 1442.0 327.0 L 1437.0 322.0 L 1431.0 308.0 L 1431.0 294.0 L 1435.0 283.0 L 1445.0 272.0 L 1463.0 264.0 L 1513.0 256.0 Z M 1035.0 106.0 L 1027.0 104.0 L 1007.0 104.0 L 993.0 107.0 L 976.0 114.0 L 966.0 120.0 L 952.0 132.0 L 943.0 143.0 L 935.0 157.0 L 932.0 159.0 L 932.0 111.0 L 864.0 111.0 L 864.0 377.0 L 936.0 377.0 L 936.0 246.0 L 938.0 229.0 L 942.0 214.0 L 954.0 193.0 L 965.0 183.0 L 980.0 175.0 L 998.0 171.0 L 1020.0 171.0 L 1035.0 173.0 Z M 656.0 107.0 L 635.0 114.0 L 621.0 121.0 L 606.0 131.0 L 588.0 148.0 L 571.0 173.0 L 560.0 201.0 L 555.0 229.0 L 555.0 259.0 L 561.0 292.0 L 570.0 315.0 L 581.0 333.0 L 589.0 343.0 L 604.0 357.0 L 632.0 373.0 L 655.0 380.0 L 673.0 383.0 L 708.0 383.0 L 738.0 377.0 L 765.0 365.0 L 786.0 348.0 L 803.0 324.0 L 815.0 295.0 L 751.0 295.0 L 746.0 305.0 L 736.0 315.0 L 722.0 324.0 L 704.0 329.0 L 674.0 328.0 L 657.0 322.0 L 646.0 314.0 L 639.0 306.0 L 630.0 285.0 L 627.0 264.0 L 628.0 261.0 L 820.0 261.0 L 820.0 234.0 L 814.0 199.0 L 807.0 179.0 L 793.0 154.0 L 772.0 131.0 L 755.0 119.0 L 732.0 109.0 L 707.0 104.0 L 674.0 104.0 Z M 627.0 214.0 L 631.0 195.0 L 641.0 178.0 L 655.0 166.0 L 669.0 160.0 L 681.0 158.0 L 703.0 159.0 L 716.0 163.0 L 724.0 168.0 L 731.0 175.0 L 737.0 184.0 L 746.0 208.0 L 746.0 215.0 Z M 123.0 105.0 L 94.0 113.0 L 76.0 122.0 L 64.0 130.0 L 43.0 150.0 L 31.0 167.0 L 21.0 188.0 L 13.0 219.0 L 12.0 262.0 L 14.0 277.0 L 20.0 299.0 L 33.0 326.0 L 44.0 341.0 L 56.0 353.0 L 71.0 364.0 L 91.0 374.0 L 116.0 381.0 L 130.0 383.0 L 173.0 382.0 L 206.0 373.0 L 220.0 366.0 L 233.0 357.0 L 247.0 343.0 L 255.0 332.0 L 266.0 311.0 L 272.0 295.0 L 207.0 296.0 L 202.0 306.0 L 194.0 314.0 L 176.0 325.0 L 161.0 329.0 L 131.0 328.0 L 112.0 321.0 L 98.0 309.0 L 90.0 295.0 L 87.0 286.0 L 84.0 267.0 L 85.0 261.0 L 276.0 261.0 L 277.0 238.0 L 274.0 213.0 L 265.0 182.0 L 255.0 162.0 L 242.0 144.0 L 225.0 128.0 L 204.0 115.0 L 177.0 106.0 L 164.0 104.0 Z M 86.0 201.0 L 92.0 186.0 L 106.0 170.0 L 126.0 160.0 L 137.0 158.0 L 153.0 158.0 L 170.0 162.0 L 178.0 166.0 L 186.0 173.0 L 192.0 181.0 L 198.0 193.0 L 204.0 214.0 L 84.0 214.0 Z M 1906.0 31.0 L 1905.0 111.0 L 1862.0 111.0 L 1862.0 159.0 L 1906.0 160.0 L 1906.0 323.0 L 1910.0 343.0 L 1917.0 356.0 L 1926.0 365.0 L 1947.0 375.0 L 1973.0 379.0 L 2014.0 379.0 L 2032.0 377.0 L 2032.0 321.0 L 2004.0 323.0 L 1990.0 320.0 L 1983.0 314.0 L 1979.0 302.0 L 1980.0 159.0 L 2032.0 159.0 L 2032.0 111.0 L 1979.0 110.0 L 1979.0 31.0 Z M 1074.0 10.0 L 1074.0 377.0 L 1147.0 377.0 L 1147.0 221.0 L 1150.0 202.0 L 1156.0 185.0 L 1169.0 170.0 L 1180.0 164.0 L 1192.0 161.0 L 1215.0 161.0 L 1231.0 167.0 L 1241.0 177.0 L 1248.0 193.0 L 1251.0 212.0 L 1251.0 377.0 L 1324.0 376.0 L 1323.0 189.0 L 1318.0 161.0 L 1315.0 152.0 L 1305.0 134.0 L 1292.0 121.0 L 1272.0 110.0 L 1244.0 104.0 L 1215.0 104.0 L 1198.0 108.0 L 1175.0 119.0 L 1161.0 131.0 L 1148.0 148.0 L 1147.0 9.0 Z" fill="#A1A1A5" fill-rule="evenodd"/>
  <path d="M 1571.0 438.0 L 1571.0 543.0 L 1594.0 543.0 L 1595.0 495.0 L 1623.0 543.0 L 1649.0 543.0 L 1622.0 501.0 L 1623.0 498.0 L 1628.0 497.0 L 1633.0 494.0 L 1640.0 487.0 L 1643.0 481.0 L 1645.0 466.0 L 1643.0 458.0 L 1639.0 451.0 L 1630.0 443.0 L 1620.0 439.0 L 1614.0 438.0 Z M 1595.0 457.0 L 1612.0 457.0 L 1618.0 460.0 L 1622.0 466.0 L 1622.0 474.0 L 1620.0 478.0 L 1613.0 483.0 L 1594.0 482.0 Z M 903.0 438.0 L 903.0 543.0 L 925.0 543.0 L 925.0 438.0 Z M 658.0 438.0 L 662.0 454.0 L 667.0 466.0 L 680.0 506.0 L 680.0 509.0 L 692.0 543.0 L 714.0 542.0 L 736.0 472.0 L 739.0 466.0 L 747.0 441.0 L 747.0 438.0 L 725.0 438.0 L 708.0 493.0 L 706.0 503.0 L 703.0 510.0 L 701.0 507.0 L 683.0 445.0 L 680.0 438.0 Z M 427.0 438.0 L 427.0 543.0 L 466.0 543.0 L 479.0 540.0 L 494.0 532.0 L 505.0 520.0 L 510.0 510.0 L 513.0 497.0 L 512.0 478.0 L 509.0 468.0 L 504.0 459.0 L 490.0 446.0 L 472.0 439.0 L 465.0 438.0 Z M 450.0 457.0 L 463.0 457.0 L 474.0 461.0 L 483.0 469.0 L 489.0 481.0 L 490.0 494.0 L 488.0 503.0 L 484.0 511.0 L 473.0 521.0 L 464.0 524.0 L 449.0 523.0 Z M 211.0 438.0 L 174.0 543.0 L 198.0 543.0 L 204.0 521.0 L 207.0 516.0 L 239.0 517.0 L 242.0 530.0 L 247.0 543.0 L 271.0 543.0 L 233.0 438.0 Z M 222.0 464.0 L 224.0 467.0 L 232.0 494.0 L 231.0 498.0 L 212.0 497.0 Z M 1849.0 437.0 L 1835.0 436.0 L 1820.0 439.0 L 1811.0 444.0 L 1806.0 449.0 L 1801.0 460.0 L 1801.0 474.0 L 1805.0 484.0 L 1816.0 494.0 L 1841.0 505.0 L 1848.0 513.0 L 1847.0 520.0 L 1843.0 524.0 L 1840.0 525.0 L 1828.0 525.0 L 1817.0 521.0 L 1810.0 516.0 L 1799.0 532.0 L 1807.0 538.0 L 1818.0 543.0 L 1828.0 545.0 L 1839.0 545.0 L 1852.0 542.0 L 1859.0 538.0 L 1865.0 532.0 L 1870.0 521.0 L 1870.0 507.0 L 1869.0 503.0 L 1863.0 493.0 L 1853.0 486.0 L 1829.0 476.0 L 1824.0 471.0 L 1823.0 468.0 L 1824.0 463.0 L 1829.0 458.0 L 1834.0 456.0 L 1848.0 457.0 L 1858.0 462.0 L 1867.0 448.0 L 1867.0 444.0 L 1859.0 440.0 Z M 1358.0 436.0 L 1342.0 439.0 L 1335.0 442.0 L 1327.0 447.0 L 1318.0 456.0 L 1314.0 462.0 L 1309.0 474.0 L 1307.0 484.0 L 1307.0 496.0 L 1311.0 512.0 L 1316.0 522.0 L 1327.0 534.0 L 1335.0 539.0 L 1345.0 543.0 L 1356.0 545.0 L 1367.0 545.0 L 1377.0 543.0 L 1391.0 537.0 L 1405.0 524.0 L 1412.0 511.0 L 1414.0 504.0 L 1415.0 481.0 L 1412.0 469.0 L 1407.0 459.0 L 1396.0 447.0 L 1381.0 439.0 L 1373.0 437.0 Z M 1357.0 456.0 L 1366.0 456.0 L 1377.0 460.0 L 1388.0 472.0 L 1392.0 484.0 L 1392.0 496.0 L 1390.0 504.0 L 1387.0 510.0 L 1378.0 520.0 L 1367.0 525.0 L 1356.0 525.0 L 1346.0 521.0 L 1337.0 512.0 L 1331.0 499.0 L 1330.0 492.0 L 1331.0 481.0 L 1336.0 470.0 L 1342.0 463.0 L 1350.0 458.0 Z M 1139.0 438.0 L 1126.0 436.0 L 1109.0 438.0 L 1098.0 443.0 L 1089.0 453.0 L 1086.0 468.0 L 1088.0 479.0 L 1092.0 486.0 L 1105.0 496.0 L 1125.0 504.0 L 1133.0 512.0 L 1132.0 521.0 L 1126.0 525.0 L 1110.0 524.0 L 1101.0 520.0 L 1096.0 516.0 L 1084.0 532.0 L 1101.0 542.0 L 1114.0 545.0 L 1125.0 545.0 L 1135.0 543.0 L 1146.0 537.0 L 1150.0 533.0 L 1154.0 526.0 L 1156.0 517.0 L 1156.0 509.0 L 1155.0 504.0 L 1151.0 496.0 L 1142.0 488.0 L 1116.0 477.0 L 1109.0 470.0 L 1110.0 462.0 L 1114.0 458.0 L 1119.0 456.0 L 1129.0 456.0 L 1139.0 459.0 L 1144.0 462.0 L 1154.0 445.0 Z" fill="#005696" fill-rule="evenodd"/>
</svg>
