<?xml version="1.0" encoding="UTF-8"?>
<svg xmlns="http://www.w3.org/2000/svg" width="561" height="149" viewBox="0 0 561 149" role="img" aria-label="Everhart Advisors logo - white">
  <title>Everhart Advisors logo - white</title>
  <path d="M 433.0 119.0 L 433.0 148.0 L 439.0 147.0 L 440.0 136.0 L 447.0 148.0 L 454.0 148.0 L 452.0 144.0 L 448.0 139.0 L 447.0 136.0 L 451.0 133.0 L 453.0 129.0 L 453.0 126.0 L 452.0 123.0 L 449.0 120.0 L 447.0 119.0 Z M 440.0 124.0 L 446.0 125.0 L 446.0 130.0 L 439.0 130.0 Z M 247.0 119.0 L 247.0 148.0 L 253.0 148.0 L 253.0 119.0 Z M 179.0 119.0 L 187.0 144.0 L 189.0 148.0 L 195.0 147.0 L 196.0 144.0 L 196.0 141.0 L 204.0 119.0 L 197.0 120.0 L 193.0 135.0 L 191.0 137.0 L 185.0 119.0 Z M 115.0 119.0 L 115.0 148.0 L 125.0 148.0 L 129.0 147.0 L 133.0 145.0 L 137.0 141.0 L 139.0 134.0 L 138.0 127.0 L 136.0 124.0 L 133.0 121.0 L 128.0 119.0 Z M 122.0 124.0 L 127.0 124.0 L 131.0 128.0 L 132.0 130.0 L 132.0 137.0 L 131.0 139.0 L 129.0 141.0 L 125.0 143.0 L 121.0 142.0 Z M 55.0 119.0 L 54.0 121.0 L 54.0 123.0 L 52.0 126.0 L 49.0 137.0 L 47.0 140.0 L 45.0 146.0 L 45.0 148.0 L 51.0 148.0 L 54.0 140.0 L 63.0 141.0 L 65.0 148.0 L 71.0 148.0 L 71.0 145.0 L 64.0 128.0 L 63.0 123.0 L 61.0 119.0 Z M 58.0 127.0 L 60.0 130.0 L 61.0 134.0 L 55.0 134.0 Z M 504.0 118.0 L 498.0 121.0 L 496.0 125.0 L 496.0 128.0 L 497.0 131.0 L 500.0 134.0 L 506.0 136.0 L 509.0 139.0 L 509.0 141.0 L 507.0 143.0 L 503.0 143.0 L 500.0 141.0 L 498.0 141.0 L 497.0 146.0 L 501.0 148.0 L 509.0 148.0 L 514.0 145.0 L 515.0 143.0 L 515.0 136.0 L 511.0 132.0 L 505.0 130.0 L 502.0 126.0 L 504.0 124.0 L 513.0 124.0 L 515.0 121.0 L 509.0 118.0 Z M 366.0 120.0 L 361.0 125.0 L 359.0 131.0 L 359.0 135.0 L 360.0 139.0 L 363.0 143.0 L 363.0 144.0 L 367.0 147.0 L 370.0 148.0 L 378.0 148.0 L 381.0 147.0 L 384.0 145.0 L 388.0 140.0 L 389.0 137.0 L 389.0 129.0 L 388.0 126.0 L 384.0 121.0 L 377.0 118.0 L 372.0 118.0 Z M 371.0 124.0 L 378.0 124.0 L 382.0 128.0 L 383.0 131.0 L 383.0 135.0 L 382.0 138.0 L 378.0 142.0 L 376.0 143.0 L 372.0 143.0 L 370.0 142.0 L 367.0 139.0 L 365.0 133.0 L 366.0 129.0 Z M 306.0 118.0 L 301.0 120.0 L 299.0 122.0 L 298.0 124.0 L 298.0 129.0 L 299.0 131.0 L 302.0 134.0 L 309.0 137.0 L 311.0 139.0 L 311.0 141.0 L 309.0 143.0 L 305.0 143.0 L 302.0 141.0 L 299.0 142.0 L 299.0 146.0 L 303.0 148.0 L 311.0 148.0 L 313.0 147.0 L 316.0 144.0 L 317.0 142.0 L 317.0 137.0 L 316.0 135.0 L 313.0 132.0 L 307.0 130.0 L 304.0 126.0 L 306.0 124.0 L 312.0 124.0 L 314.0 125.0 L 316.0 122.0 L 316.0 120.0 L 310.0 118.0 Z M 76.0 28.0 L 76.0 30.0 L 84.0 54.0 L 86.0 57.0 L 96.0 89.0 L 98.0 92.0 L 99.0 97.0 L 101.0 101.0 L 124.0 100.0 L 135.0 65.0 L 137.0 62.0 L 148.0 28.0 L 128.0 28.0 L 128.0 30.0 L 124.0 40.0 L 114.0 75.0 L 112.0 77.0 L 110.0 73.0 L 110.0 70.0 L 97.0 28.0 Z M 503.0 26.0 L 494.0 26.0 L 490.0 27.0 L 486.0 29.0 L 479.0 35.0 L 476.0 40.0 L 475.0 28.0 L 456.0 28.0 L 456.0 101.0 L 476.0 101.0 L 476.0 61.0 L 477.0 57.0 L 479.0 53.0 L 485.0 47.0 L 489.0 45.0 L 493.0 44.0 L 503.0 45.0 Z M 384.0 33.0 L 378.0 40.0 L 376.0 46.0 L 376.0 50.0 L 396.0 50.0 L 396.0 47.0 L 397.0 45.0 L 402.0 40.0 L 405.0 39.0 L 414.0 39.0 L 419.0 41.0 L 422.0 44.0 L 423.0 47.0 L 423.0 51.0 L 420.0 55.0 L 416.0 57.0 L 392.0 60.0 L 388.0 61.0 L 379.0 66.0 L 374.0 74.0 L 374.0 88.0 L 378.0 96.0 L 383.0 100.0 L 387.0 102.0 L 391.0 103.0 L 407.0 103.0 L 414.0 101.0 L 418.0 99.0 L 423.0 95.0 L 425.0 101.0 L 445.0 101.0 L 443.0 96.0 L 443.0 45.0 L 442.0 40.0 L 440.0 36.0 L 435.0 31.0 L 429.0 28.0 L 420.0 26.0 L 402.0 26.0 L 393.0 28.0 Z M 423.0 67.0 L 423.0 76.0 L 421.0 83.0 L 416.0 88.0 L 412.0 90.0 L 401.0 90.0 L 398.0 89.0 L 394.0 85.0 L 393.0 82.0 L 393.0 79.0 L 394.0 76.0 L 398.0 72.0 L 402.0 70.0 L 406.0 69.0 L 412.0 69.0 L 420.0 67.0 Z M 283.0 26.0 L 274.0 26.0 L 268.0 28.0 L 262.0 32.0 L 256.0 40.0 L 255.0 28.0 L 236.0 28.0 L 236.0 101.0 L 256.0 101.0 L 256.0 63.0 L 258.0 55.0 L 260.0 52.0 L 265.0 47.0 L 269.0 45.0 L 274.0 44.0 L 283.0 45.0 Z M 174.0 28.0 L 165.0 33.0 L 158.0 40.0 L 153.0 49.0 L 151.0 55.0 L 151.0 74.0 L 153.0 81.0 L 158.0 90.0 L 165.0 97.0 L 170.0 100.0 L 180.0 103.0 L 196.0 103.0 L 201.0 102.0 L 206.0 100.0 L 211.0 97.0 L 216.0 92.0 L 221.0 84.0 L 222.0 79.0 L 204.0 80.0 L 199.0 86.0 L 195.0 88.0 L 191.0 88.0 L 190.0 89.0 L 187.0 89.0 L 186.0 88.0 L 182.0 88.0 L 178.0 86.0 L 173.0 81.0 L 171.0 76.0 L 170.0 71.0 L 172.0 69.0 L 224.0 69.0 L 224.0 60.0 L 223.0 54.0 L 221.0 48.0 L 216.0 39.0 L 209.0 32.0 L 202.0 28.0 L 195.0 26.0 L 181.0 26.0 Z M 170.0 56.0 L 171.0 52.0 L 173.0 48.0 L 178.0 43.0 L 182.0 41.0 L 192.0 41.0 L 197.0 43.0 L 200.0 46.0 L 203.0 52.0 L 204.0 56.0 Z M 30.0 26.0 L 23.0 28.0 L 14.0 33.0 L 7.0 40.0 L 2.0 49.0 L 0.0 57.0 L 0.0 73.0 L 3.0 83.0 L 7.0 90.0 L 13.0 96.0 L 22.0 101.0 L 29.0 103.0 L 46.0 103.0 L 53.0 101.0 L 60.0 97.0 L 66.0 91.0 L 71.0 82.0 L 71.0 79.0 L 54.0 79.0 L 48.0 86.0 L 44.0 88.0 L 40.0 88.0 L 39.0 89.0 L 36.0 89.0 L 35.0 88.0 L 31.0 88.0 L 27.0 86.0 L 22.0 81.0 L 20.0 76.0 L 21.0 69.0 L 73.0 69.0 L 73.0 58.0 L 72.0 53.0 L 70.0 47.0 L 66.0 40.0 L 63.0 37.0 L 63.0 36.0 L 57.0 31.0 L 51.0 28.0 L 44.0 26.0 Z M 20.0 53.0 L 22.0 48.0 L 27.0 43.0 L 32.0 41.0 L 42.0 41.0 L 46.0 43.0 L 51.0 49.0 L 52.0 57.0 L 20.0 56.0 Z M 526.0 6.0 L 525.0 28.0 L 513.0 28.0 L 513.0 41.0 L 526.0 42.0 L 526.0 91.0 L 527.0 94.0 L 532.0 99.0 L 536.0 101.0 L 540.0 102.0 L 560.0 102.0 L 560.0 86.0 L 552.0 87.0 L 549.0 86.0 L 546.0 83.0 L 545.0 79.0 L 546.0 41.0 L 560.0 41.0 L 560.0 28.0 L 545.0 27.0 L 545.0 6.0 Z M 295.0 0.0 L 295.0 101.0 L 315.0 101.0 L 315.0 54.0 L 317.0 48.0 L 322.0 43.0 L 331.0 41.0 L 338.0 43.0 L 341.0 46.0 L 343.0 50.0 L 344.0 55.0 L 344.0 101.0 L 364.0 101.0 L 364.0 52.0 L 363.0 44.0 L 360.0 36.0 L 357.0 32.0 L 351.0 28.0 L 344.0 26.0 L 332.0 26.0 L 326.0 28.0 L 321.0 31.0 L 316.0 37.0 L 315.0 0.0 Z" fill="#FFFFFF" fill-rule="evenodd"/>
</svg>
